<?xml version="1.0" standalone="no"?>
<!DOCTYPE svg PUBLIC "-//W3C//DTD SVG 20010904//EN"
 "http://www.w3.org/TR/2001/REC-SVG-20010904/DTD/svg10.dtd">
<svg version="1.0" xmlns="http://www.w3.org/2000/svg"
 width="1042.000000pt" height="523.000000pt" viewBox="0 0 1042.000000 523.000000"
 preserveAspectRatio="xMidYMid meet">

<g transform="translate(0.000000,523.000000) scale(0.100000,-0.100000)"
fill="#000000" stroke="none">
<path d="M0 2615 l0 -2615 5210 0 5210 0 0 2615 0 2615 -5210 0 -5210 0 0
-2615z m5096 1820 c16 -8 23 -15 15 -15 -8 0 -11 -6 -7 -15 3 -8 2 -15 -2 -15
-4 0 -7 -33 -7 -73 0 -54 4 -74 15 -80 10 -5 6 -6 -9 -3 -13 3 -38 -2 -55 -11
-30 -16 -523 -183 -538 -183 -5 0 -8 52 -8 115 l0 114 238 76 c130 42 250 80
266 85 15 6 32 7 37 4 5 -3 9 0 9 5 0 15 13 14 46 -4z m43 -420 c18 -4 49 -16
67 -27 36 -21 47 -36 14 -18 -14 7 -20 7 -20 0 0 -5 3 -10 8 -10 4 0 7 -10 8
-22 0 -13 2 -34 3 -48 2 -14 2 -45 1 -70 -2 -38 -3 -41 -10 -20 -8 24 -8 24
-9 3 -1 -26 -3 -27 -71 -12 -49 10 -56 9 -334 -85 -157 -53 -287 -96 -291 -96
-3 0 -4 52 -3 116 l3 117 285 92 c157 51 292 91 300 90 8 -2 30 -7 49 -10z
m11 -431 c19 -2 37 -9 40 -15 4 -5 15 -7 26 -3 16 5 16 4 4 -5 -13 -9 -13 -11
0 -11 12 -1 12 -3 -3 -14 -14 -11 -15 -15 -4 -19 16 -6 11 -118 -5 -128 -6 -4
-1 -10 11 -14 12 -3 18 -11 15 -17 -4 -6 -10 -5 -15 3 -6 9 -12 10 -16 4 -9
-12 -19 -12 -83 -2 -40 7 -74 -2 -329 -87 -157 -53 -286 -95 -287 -93 -2 1 -4
52 -5 112 -1 84 2 111 12 118 34 21 566 186 584 181 11 -2 36 -7 55 -10z m261
-480 c172 -36 321 -70 331 -75 10 -6 23 -7 28 -4 6 3 10 3 10 0 0 -3 -15 -13
-32 -21 l-33 -14 40 5 c22 2 32 2 23 -1 -10 -3 -18 -9 -18 -14 0 -5 -7 -7 -16
-3 -12 4 -15 2 -12 -8 3 -8 10 -13 15 -12 5 1 9 -14 9 -33 0 -24 -5 -34 -15
-35 -11 0 -10 -3 4 -9 17 -7 16 -9 -10 -10 l-30 -2 30 -8 c21 -5 24 -8 10 -9
-18 -2 -17 -4 5 -14 l25 -11 -30 -4 c-16 -2 -54 1 -85 7 -30 6 -173 34 -318
61 l-263 51 -272 -90 c-150 -49 -280 -93 -290 -96 -16 -7 -17 3 -17 112 l0
118 283 92 c155 51 289 92 299 92 9 1 157 -29 329 -65z m-20 -423 c388 -81
439 -93 431 -105 -3 -6 -8 -40 -10 -76 -2 -35 -5 -66 -7 -69 -3 -2 3 -9 12
-16 9 -7 17 -19 19 -27 3 -22 -40 -16 -413 57 l-342 67 -282 -92 c-155 -50
-288 -94 -296 -97 -11 -4 -13 15 -11 113 l3 118 280 93 c154 51 292 92 306 93
14 0 153 -27 310 -59z m731 -833 c-4 -386 -2 -405 41 -423 30 -13 24 -14 -73
-13 -99 0 -103 1 -72 14 l32 14 0 324 c0 178 -3 331 -6 340 -3 9 -18 16 -33
17 -19 1 -13 5 24 16 41 11 90 29 90 32 0 1 -1 -144 -3 -321z m243 0 c0 -371
3 -428 21 -421 7 2 21 0 31 -6 13 -8 -9 -10 -87 -10 -97 0 -103 1 -74 13 27
12 32 20 37 61 9 61 9 469 0 558 -5 62 -8 68 -32 74 -23 6 -18 9 39 29 36 12
65 22 65 23 0 0 0 -144 0 -321z m-2345 232 c25 0 31 -9 75 -107 26 -60 63
-142 82 -183 19 -41 51 -110 70 -152 20 -43 39 -78 42 -78 4 0 25 36 46 80 21
44 42 80 45 80 4 0 7 6 7 13 0 6 30 77 68 157 37 80 71 154 75 166 7 18 20 22
85 28 78 7 111 2 59 -9 -47 -10 -59 -20 -64 -56 -3 -19 -3 -152 0 -296 4 -193
9 -266 18 -275 7 -7 30 -18 50 -24 32 -10 19 -12 -98 -12 -130 0 -134 1 -93
15 40 14 41 16 45 62 1 27 1 149 -2 272 l-5 224 -42 -87 c-74 -152 -124 -260
-174 -373 -26 -60 -52 -111 -57 -113 -5 -1 -13 10 -16 25 -4 15 -49 127 -101
249 -52 121 -95 227 -97 235 -2 7 -9 20 -15 27 -7 7 -13 20 -13 28 0 8 -4 14
-9 14 -8 0 -15 -90 -27 -365 -7 -156 1 -195 38 -196 13 0 32 -4 43 -9 13 -5
-25 -8 -100 -8 -100 0 -114 2 -87 11 19 6 40 20 48 33 17 26 43 284 47 466 2
136 9 121 -73 157 -20 9 -13 11 39 6 35 -3 76 -5 91 -5z m2584 -62 c16 -26
-26 -68 -52 -52 -22 14 -27 41 -11 60 15 19 49 14 63 -8z m-1534 -190 c14 -5
42 -27 62 -49 81 -88 68 -252 -25 -323 -79 -60 -186 -69 -257 -22 -83 55 -117
203 -67 290 57 101 177 144 287 104z m476 8 c19 -14 19 -15 0 -50 -18 -33 -20
-34 -40 -21 -32 23 -69 18 -96 -13 -25 -28 -25 -30 -20 -169 3 -78 7 -143 10
-146 3 -2 19 -9 35 -14 24 -9 10 -11 -74 -11 -62 0 -99 3 -91 8 8 5 17 7 22 4
19 -12 28 46 28 190 l0 154 -26 20 -27 19 45 11 c25 7 53 14 62 18 13 5 16 -2
16 -42 l0 -47 46 46 c25 26 50 44 55 41 5 -3 9 0 9 5 0 15 23 14 46 -3z m314
-15 c28 -19 83 -122 72 -133 -8 -8 -232 -30 -254 -26 -9 2 -14 -12 -16 -40 -4
-51 31 -118 75 -148 38 -25 129 -25 167 -1 41 27 42 14 1 -17 -38 -29 -105
-56 -140 -56 -27 0 -82 23 -112 47 -53 43 -77 157 -52 248 33 120 170 187 259
126z m752 -183 l3 -203 35 -12 c31 -11 23 -12 -75 -12 -101 0 -107 1 -79 13
27 12 32 20 37 61 4 26 7 101 7 166 0 122 -8 149 -47 149 -9 0 -14 3 -11 6 7
6 95 32 115 33 10 1 13 -49 15 -201z m-2272 -588 c0 -155 2 -170 18 -170 14
-1 15 -2 2 -9 -36 -20 -60 -23 -60 -6 0 13 -5 15 -17 9 -10 -4 -34 -9 -54 -12
-30 -3 -40 1 -58 23 -34 44 -20 142 23 158 12 5 12 1 -1 -31 -30 -71 16 -144
81 -128 25 6 26 9 26 81 0 81 5 74 -65 88 -13 3 -4 7 23 12 l42 8 0 63 c0 54
-3 64 -17 65 -15 0 -15 2 2 9 55 24 55 24 55 -160z m-293 -17 c40 -120 54
-150 74 -160 21 -11 17 -13 -41 -12 -36 1 -57 3 -46 6 21 5 18 35 -8 98 -15
34 -18 36 -58 33 -38 -3 -45 -7 -60 -38 -23 -47 -23 -87 0 -93 9 -3 -8 -5 -38
-5 -41 -1 -49 2 -34 8 21 8 36 41 119 263 10 26 23 47 31 47 7 0 32 -60 61
-147z m2323 130 c0 -5 -14 -24 -30 -43 l-30 -35 17 43 c9 23 22 42 30 42 7 0
13 -3 13 -7z m-1540 -17 c0 -8 -5 -18 -11 -22 -14 -8 -33 11 -25 25 10 16 36
13 36 -3z m360 0 c0 -21 -21 -31 -30 -15 -5 7 -6 17 -4 21 9 14 34 9 34 -6z
m974 6 c8 -13 -11 -35 -23 -28 -16 10 -14 36 3 36 8 0 17 -4 20 -8z m-661 -90
c37 -4 35 -22 -3 -22 l-30 0 0 -64 c0 -81 6 -96 37 -96 13 0 21 -4 18 -10 -10
-17 -72 -12 -79 6 -3 9 -6 47 -6 86 0 56 -4 74 -17 84 -17 13 -17 13 0 14 11
0 17 8 17 23 0 13 6 29 13 36 10 10 13 6 17 -21 4 -27 10 -34 33 -36z m-1048
-22 c3 0 20 8 40 17 34 16 36 16 63 -3 26 -20 28 -20 57 -2 67 40 96 11 103
-102 4 -62 8 -80 21 -83 9 -3 -9 -5 -39 -5 -30 0 -47 2 -37 5 14 4 17 16 17
69 0 36 -5 74 -10 85 -12 22 -59 26 -78 7 -18 -18 -15 -133 4 -152 14 -15 11
-16 -33 -16 -37 1 -44 3 -30 11 13 8 17 23 17 70 0 75 -12 99 -48 99 -42 0
-52 -17 -52 -92 0 -53 4 -69 18 -77 13 -8 6 -10 -31 -11 -44 0 -47 1 -33 16
21 20 22 137 2 156 -11 11 -9 15 13 24 20 8 27 8 29 -3 2 -7 5 -13 7 -13z
m392 -167 c14 -11 9 -13 -33 -13 -27 0 -44 4 -37 8 14 9 20 134 9 169 -6 17
-2 22 16 25 22 3 23 0 26 -87 2 -70 6 -93 19 -102z m99 182 c-7 -18 2 -18 34
0 35 20 57 18 80 -5 16 -16 20 -33 20 -95 0 -60 3 -76 18 -84 13 -8 6 -10 -33
-10 -27 0 -44 3 -37 6 8 3 12 29 12 78 0 64 -3 76 -21 89 -27 19 -61 7 -73
-26 -14 -38 2 -136 22 -141 9 -3 -8 -5 -38 -6 -42 0 -51 2 -37 10 14 8 17 24
17 84 0 47 -4 77 -12 81 -8 5 -2 12 17 20 38 17 38 17 31 -1z m269 -186 c13
-5 2 -8 -35 -8 -42 0 -51 2 -37 10 14 8 17 24 17 84 0 41 -4 77 -10 80 -17 11
-11 23 13 27 21 3 22 0 27 -91 4 -82 8 -95 25 -102z m160 191 c11 -18 -6 -33
-18 -16 -7 8 -21 16 -32 19 -13 3 -9 5 12 6 17 0 35 -3 38 -9z m318 4 c3 -4 2
-15 -4 -25 -8 -15 -14 -17 -29 -9 -15 8 -22 6 -34 -12 -26 -36 -16 -144 13
-151 9 -3 -9 -5 -39 -6 -42 0 -51 2 -37 10 14 8 17 24 17 84 0 41 -5 77 -10
80 -15 9 -2 25 21 25 10 0 19 -7 19 -15 0 -21 13 -19 35 5 18 20 36 25 48 14z
m135 -10 c19 -13 22 -24 22 -91 0 -66 2 -75 20 -80 28 -7 14 -23 -21 -23 -31
0 -32 3 -29 63 1 20 0 37 -3 37 -2 0 -18 -5 -36 -11 -41 -14 -44 -55 -5 -65
19 -5 22 -9 12 -15 -26 -17 -58 -10 -68 16 -14 37 -3 52 51 70 54 18 64 42 32
77 -22 24 -50 23 -63 -3 -7 -11 -14 -18 -17 -15 -8 8 18 37 42 46 29 13 38 12
63 -6z m241 2 c15 -18 -5 -34 -22 -17 -6 6 -26 11 -44 11 -39 0 -53 -21 -53
-80 0 -69 55 -108 113 -79 21 10 21 9 -2 -10 -23 -21 -73 -27 -106 -15 -21 8
-45 56 -45 89 0 14 7 39 14 54 26 49 118 79 145 47z m119 -189 c9 -3 -8 -5
-38 -5 -30 0 -47 2 -37 5 14 4 17 17 17 89 0 59 -4 84 -12 84 -18 0 4 17 27
22 19 3 20 -3 23 -94 2 -81 5 -97 20 -101z m213 177 c22 -20 34 -73 25 -110
-11 -43 -53 -74 -101 -74 -54 0 -83 23 -95 74 -12 54 9 102 52 121 39 18 93
13 119 -11z m130 -78 c-2 -83 0 -95 16 -99 10 -3 -7 -5 -37 -6 -42 0 -51 2
-37 10 14 8 17 24 17 89 0 57 -4 80 -12 81 -7 0 1 7 17 14 17 7 32 12 34 10 2
-2 3 -47 2 -99z m109 84 c16 -16 20 -33 20 -95 0 -60 3 -76 18 -84 13 -8 6
-10 -33 -10 -39 0 -46 2 -32 10 13 8 17 23 17 64 0 75 -15 105 -54 105 -29 1
-30 1 -12 15 27 20 52 19 76 -5z m-1347 -14 c-4 -21 3 -31 41 -57 43 -31 51
-44 46 -79 -2 -19 -29 -40 -49 -40 -13 1 -13 2 2 11 30 17 20 46 -28 79 -46
32 -55 53 -35 91 15 27 28 24 23 -5z m-5 -163 c14 -11 13 -13 -6 -13 -12 0
-22 3 -22 8 0 4 -3 18 -6 32 -5 23 -5 24 7 5 6 -11 19 -26 27 -32z"/>
<path d="M5715 3020 c3 -5 11 -10 16 -10 6 0 7 5 4 10 -3 6 -11 10 -16 10 -6
0 -7 -4 -4 -10z"/>
<path d="M5728 2903 c7 -3 16 -2 19 1 4 3 -2 6 -13 5 -11 0 -14 -3 -6 -6z"/>
<path d="M5790 2400 c8 -5 20 -10 25 -10 6 0 3 5 -5 10 -8 5 -19 10 -25 10 -5
0 -3 -5 5 -10z"/>
<path d="M4892 1804 c-36 -25 -53 -70 -54 -142 -1 -151 68 -245 172 -234 8 1
24 3 34 4 12 2 28 21 42 53 51 108 15 275 -69 322 -31 17 -98 16 -125 -3z"/>
<path d="M5729 1818 c-14 -5 -32 -20 -39 -33 -7 -14 -16 -25 -19 -25 -3 0 -7
-18 -9 -40 l-2 -40 53 0 c30 0 75 3 101 6 46 7 47 7 40 38 -3 17 -11 37 -16
44 -6 6 -7 12 -3 12 13 0 -39 37 -60 42 -11 3 -32 1 -46 -4z"/>
<path d="M3957 1099 c-9 -19 -19 -47 -22 -62 -7 -26 -6 -27 34 -27 40 0 41 1
35 28 -4 15 -13 43 -20 62 l-12 35 -15 -36z"/>
<path d="M6289 1041 c-50 -40 -19 -162 43 -169 39 -5 58 22 58 79 0 42 -5 55
-29 80 -35 34 -41 35 -72 10z"/>
</g>
</svg>
